<?xml version="1.0" standalone="no"?>
<!DOCTYPE svg PUBLIC "-//W3C//DTD SVG 1.1//EN" "http://www.w3.org/Graphics/SVG/1.1/DTD/svg11.dtd" >
<svg xmlns="http://www.w3.org/2000/svg">
<metadata></metadata>
<defs>
<font id="lhf_monogram_diamond_1regular" horiz-adv-x="552" >
<font-face units-per-em="2048" ascent="1536" descent="-512" />
<missing-glyph horiz-adv-x="1024" />
<glyph horiz-adv-x="0" />
<glyph horiz-adv-x="682" />
<glyph unicode=" "  horiz-adv-x="1024" />
<glyph unicode="&#x09;" horiz-adv-x="1024" />
<glyph unicode="&#xa0;" horiz-adv-x="1024" />
<glyph unicode="(" d="M165 667l150 198l71 -94q-3 2 -9.5 3.5t-23 -5t-30.5 -25.5l-59 -77l132 20l55 -265v498q0 31 -10 48.5t-20 19.5l-10 2l119 158v-962l-153 202l-46 208l-98 -18z" />
<glyph unicode="*" horiz-adv-x="1422" d="M41 667l670 881l671 -881l-671 -881zM103 667l608 -800l609 800l-609 800z" />
<glyph unicode="0" d="M165 667l365 481v-962l-79 105v336h-156l94 -125v-130zM295 707h156v204z" />
<glyph unicode="1" d="M165 667l65 86v-171zM292 500v335l238 313v-370h-79v133l-80 -104v-100h80v36h79v-153h-79v37h-80v-100l80 -105v132h79v-367z" />
<glyph unicode="2" horiz-adv-x="551" d="M165 667l201 265l49 -65l-121 -160h156v336l80 105v-961l-80 105v335h-155l120 -160l-49 -65z" />
<glyph unicode="3" d="M165 667l65 85v-170zM268 627v80h24v127l80 105v-232h79v336l79 105v-962l-79 106v335h-79v-232l-80 105v127h-24z" />
<glyph unicode="4" horiz-adv-x="551" d="M165 667l64 85v-170zM291 501v206h159v204l-79 -105v-39h-80v67l239 314v-962l-238 315h-1zM371 527l79 -104v204h-79v-100z" />
<glyph unicode="5" horiz-adv-x="551" d="M165 667l30 40h256v204l-110 -144h-101l290 381v-962zM295 627l156 -205v205h-156z" />
<glyph unicode="6" horiz-adv-x="551" d="M165 667l365 481v-520h-235l156 -204v143h79v-381zM295 707h156v204z" />
<glyph unicode="7" horiz-adv-x="551" d="M165 667l64 85v-170zM247 599v80h44v155l239 314v-381h-80v144l-79 -104v-128h156v-133h-80v53h-76v-203l-80 105v98h-44z" />
<glyph unicode="8" d="M165 667l65 86v-171zM291 501v333l239 315v-521h-159v-232zM371 707h80v204l-80 -104v-100z" />
<glyph unicode="9" d="M165 667l65 86v-171zM292 500v46h79v-19l80 -102v153h-80l-79 104v153l79 104v-229l40 -53h40v387l79 104v-961z" />
<glyph unicode="&#x3c;" d="M165 667l68 90l98 -19l46 208l153 202v-962l-120 158q2 0 4.5 0.5t9.5 4.5t12.5 10.5t10 21t4.5 33.5v499l-56 -265l-131 20l59 -77q15 -19 30.5 -26t24.5 -4l8 3l-71 -94z" />
<glyph unicode="A" d="M165 667l65 86v-171zM291 501v333l239 314v-961l-79 105v336h-80v-232zM371 707h80v204l-80 -104v-100z" />
<glyph unicode="B" d="M165 667l65 85v-170zM292 501v333l238 314v-428l-39 -53l39 -53v-428zM371 526l80 -105v167l-30 39h-50v-101zM371 707h50l30 39v165l-80 -104v-100z" />
<glyph unicode="C" horiz-adv-x="551" d="M165 667l365 481v-481h-122v80h42v164l-186 -244l186 -246v167h80v-402z" />
<glyph unicode="D" horiz-adv-x="551" d="M165 668l365 481v-962zM264 668l186 -247l1 490z" />
<glyph unicode="E" d="M165 667l365 481v-319h-79v82l-156 -204h156v60h79v-200h-79v60h-156l156 -207v84h79v-318z" />
<glyph unicode="F" d="M165 667l64 85v-170zM291 501v333l239 314v-381h-79v144l-80 -104v-128h80v28h79v-170h-79v62h-80v-203z" />
<glyph unicode="G" horiz-adv-x="551" d="M165 667l365 481v-362h-80v127l-186 -246l186 -244v204h-66v80h146v-521z" />
<glyph unicode="H" horiz-adv-x="551" d="M165 667l64 85v-170zM291 501v333l81 105v-232h78v336l80 105v-961l-80 105v335h-78v-231z" />
<glyph unicode="I" horiz-adv-x="551" d="M165 667l64 85v-170zM291 501v132l94 -124v316l-94 -123v132l239 314v-132l-37 -49q-17 -22 -23 -60.5t-6 -116.5v-299q0 -85 44 -144l22 -29v-132z" />
<glyph unicode="J" horiz-adv-x="551" d="M165 667l64 85v-170zM291 501q7 14 16.5 35.5t22.5 67.5q10 31 10 50q0 9 -2 15q-13 0 -30 13.5t-17 38.5q0 22 15.5 38t37.5 16q24 0 46 -23.5t22 -79.5q0 -76 -34 -155l72 -97v500q0 31 -10 48.5t-20 19.5l-10 2l120 158v-961z" />
<glyph unicode="K" d="M165 667l65 85v-170zM292 501v333l79 104v-231h50l30 39v297l79 105v-428l-39 -53l39 -53v-428l-79 105v297l-30 39h-50v-231z" />
<glyph unicode="L" d="M165 667l65 85v-170zM251 781l120 157v-410l80 -105v81q-42 80 -42 168q0 56 22 79.5t46 23.5q22 0 37.5 -15.5t15.5 -37.5q0 -25 -17 -39t-30 -14q-6 -20 6 -61t27 -72l14 -32v-318l-238 315v210q0 19 -4 33.5t-10 21t-12.5 10.5t-10.5 4z" />
<glyph unicode="M" d="M165 667l65 -85v171zM292 500v335l95 124l24 -234l32 308l87 115v-961l-79 104v448l-40 -381l-40 381v-343z" />
<glyph unicode="N" d="M165 667l64 85v-170zM291 501v333l80 104l78 -311l8 -31l-6 32v415l79 105v-961l-79 105l-76 301l-13 53l9 -55v-195z" />
<glyph unicode="O" d="M165 667l65 85v-170zM291 501v333l239 314v-962zM371 526l80 -105v490l-80 -104v-281z" />
<glyph unicode="P" d="M165 667l65 86v-171zM291 501v333l239 314v-428l-69 -93h-90v-231zM371 707h50l30 39v165l-80 -104v-100z" />
<glyph unicode="Q" horiz-adv-x="595" d="M165 667l64 85v-170zM291 501v333l239 314v-521h44v-80h-44v-361zM371 526l80 -105v126h-45v80h45v284l-80 -104v-281z" />
<glyph unicode="R" d="M165 667l64 85v-170zM291 501v333l239 314v-428l-40 -53l40 -53v-428l-79 105v297l-30 39h-50v-231zM371 707h50l29 39v165l-79 -104v-100z" />
<glyph unicode="S" d="M165 667l365 481v-391h-79v154l-157 -204h237v-521l-298 391h100l118 -156v206h-256z" />
<glyph unicode="T" horiz-adv-x="551" d="M165 667l365 481v-521h-80v284l-37 -49v-521l-80 104v312l-68 -90l30 -40l-50 -66z" />
<glyph unicode="U" d="M165 667l64 85v-170zM291 501v333l80 105v-411l80 -104v620l79 104v-961z" />
<glyph unicode="V" d="M165 667l150 198l72 -94q-4 2 -10 3.5t-23 -5t-31 -25.5l-58 -77l186 -245v499q0 31 -10 48.5t-20 19.5l-10 2l120 157v-962z" />
<glyph unicode="W" d="M165 668l65 -86v171zM292 500v335l79 104v-343l40 380l40 -380v448l79 104v-961l-87 114l-32 309l-24 -234z" />
<glyph unicode="X" d="M165 667l65 86v-171zM292 501v126l30 40l-30 40v127l79 105v-206l20 -26h40l20 26v310l79 105v-441l-29 -40l29 -40v-441l-79 105v310l-20 26h-40l-20 -27v-204z" />
<glyph unicode="Y" d="M165 667l65 86v-171zM292 667v168l79 104v-245l40 -52l40 52v349l79 105v-481l-79 -105v-271l-80 105v166z" />
<glyph unicode="Z" d="M165 667l64 85v-170zM291 501l160 244v166l-80 -104v-125h-80v152l239 314v-430l-140 -215l61 -79v124h79v-361z" />
<glyph unicode="a" d="M165 667l65 86v-171zM291 501v333l239 314v-961l-79 105v336h-80v-232zM371 707h80v204l-80 -104v-100z" />
<glyph unicode="b" d="M165 667l65 85v-170zM292 501v333l238 314v-428l-39 -53l39 -53v-428zM371 526l80 -105v167l-30 39h-50v-101zM371 707h50l30 39v165l-80 -104v-100z" />
<glyph unicode="c" horiz-adv-x="551" d="M165 667l365 481v-481h-122v80h42v164l-186 -244l186 -246v167h80v-402z" />
<glyph unicode="d" horiz-adv-x="551" d="M165 668l365 481v-962zM264 668l186 -247l1 490z" />
<glyph unicode="e" d="M165 667l365 481v-319h-79v82l-156 -204h156v60h79v-200h-79v60h-156l156 -207v84h79v-318z" />
<glyph unicode="f" d="M165 667l64 85v-170zM291 501v333l239 314v-381h-79v144l-80 -104v-128h80v28h79v-170h-79v62h-80v-203z" />
<glyph unicode="g" horiz-adv-x="551" d="M165 667l365 481v-362h-80v127l-186 -246l186 -244v204h-66v80h146v-521z" />
<glyph unicode="h" horiz-adv-x="551" d="M165 667l64 85v-170zM291 501v333l81 105v-232h78v336l80 105v-961l-80 105v335h-78v-231z" />
<glyph unicode="i" horiz-adv-x="551" d="M165 667l64 85v-170zM291 501v132l94 -124v316l-94 -123v132l239 314v-132l-37 -49q-17 -22 -23 -60.5t-6 -116.5v-299q0 -85 44 -144l22 -29v-132z" />
<glyph unicode="j" horiz-adv-x="551" d="M165 667l64 85v-170zM291 501q7 14 16.5 35.5t22.5 67.5q10 31 10 50q0 9 -2 15q-13 0 -30 13.5t-17 38.5q0 22 15.5 38t37.5 16q24 0 46 -23.5t22 -79.5q0 -76 -34 -155l72 -97v500q0 31 -10 48.5t-20 19.5l-10 2l120 158v-961z" />
<glyph unicode="k" d="M165 667l65 85v-170zM292 501v333l79 104v-231h50l30 39v297l79 105v-428l-39 -53l39 -53v-428l-79 105v297l-30 39h-50v-231z" />
<glyph unicode="l" d="M165 667l65 85v-170zM251 781l120 157v-410l80 -105v81q-42 80 -42 168q0 56 22 79.5t46 23.5q22 0 37.5 -15.5t15.5 -37.5q0 -25 -17 -39t-30 -14q-6 -20 6 -61t27 -72l14 -32v-318l-238 315v210q0 19 -4 33.5t-10 21t-12.5 10.5t-10.5 4z" />
<glyph unicode="m" d="M165 667l65 -85v171zM292 500v335l95 124l24 -234l32 308l87 115v-961l-79 104v448l-40 -381l-40 381v-343z" />
<glyph unicode="n" d="M165 667l64 85v-170zM291 501v333l80 104l78 -311l8 -31l-6 32v415l79 105v-961l-79 105l-76 301l-13 53l9 -55v-195z" />
<glyph unicode="o" d="M165 667l65 85v-170zM291 501v333l239 314v-962zM371 526l80 -105v490l-80 -104v-281z" />
<glyph unicode="p" d="M165 667l65 86v-171zM291 501v333l239 314v-428l-69 -93h-90v-231zM371 707h50l30 39v165l-80 -104v-100z" />
<glyph unicode="q" horiz-adv-x="595" d="M165 667l64 85v-170zM291 501v333l239 314v-521h44v-80h-44v-361zM371 526l80 -105v126h-45v80h45v284l-80 -104v-281z" />
<glyph unicode="r" d="M165 667l64 85v-170zM291 501v333l239 314v-428l-40 -53l40 -53v-428l-79 105v297l-30 39h-50v-231zM371 707h50l29 39v165l-79 -104v-100z" />
<glyph unicode="s" d="M165 667l365 481v-391h-79v154l-157 -204h237v-521l-298 391h100l118 -156v206h-256z" />
<glyph unicode="t" horiz-adv-x="551" d="M165 667l365 481v-521h-80v284l-37 -49v-521l-80 104v312l-68 -90l30 -40l-50 -66z" />
<glyph unicode="u" d="M165 667l64 85v-170zM291 501v333l80 105v-411l80 -104v620l79 104v-961z" />
<glyph unicode="v" d="M165 667l150 198l72 -94q-4 2 -10 3.5t-23 -5t-31 -25.5l-58 -77l186 -245v499q0 31 -10 48.5t-20 19.5l-10 2l120 157v-962z" />
<glyph unicode="w" d="M165 668l65 -86v171zM292 500v335l79 104v-343l40 380l40 -380v448l79 104v-961l-87 114l-32 309l-24 -234z" />
<glyph unicode="x" d="M165 667l65 86v-171zM292 501v126l30 40l-30 40v127l79 105v-206l20 -26h40l20 26v310l79 105v-441l-29 -40l29 -40v-441l-79 105v310l-20 26h-40l-20 -27v-204z" />
<glyph unicode="y" d="M165 667l65 86v-171zM292 667v168l79 104v-245l40 -52l40 52v349l79 105v-481l-79 -105v-271l-80 105v166z" />
<glyph unicode="z" d="M165 667l64 85v-170zM291 501l160 244v166l-80 -104v-125h-80v152l239 314v-430l-140 -215l61 -79v124h79v-361z" />
<glyph unicode="|" horiz-adv-x="1214" d="M57 503q0 149 73.5 275t199.5 199t274 74q113 0 214.5 -42.5t175.5 -115.5t117.5 -175t43.5 -215q0 -150 -73.5 -276.5t-200.5 -200.5t-277 -74q-149 0 -275 74t-199 200.5t-73 276.5zM64 503q0 -148 72 -273t196.5 -197.5t271.5 -72.5q148 0 273 72.5t197.5 197.5 t72.5 273q0 111 -42.5 211.5t-115 173t-173.5 115t-212 42.5q-146 0 -270.5 -72.5t-197 -197.5t-72.5 -272zM76 503q0 144 71 265.5t192.5 192.5t264.5 71q221 0 376 -154.5t155 -374.5q0 -145 -71 -267t-193 -193t-267 -71q-144 0 -265.5 71t-192 193t-70.5 267zM86 503 q0 -9 6 -15.5t14 -6.5q19 0 19 22q0 8 -5 14t-14 6q-8 0 -14 -6t-6 -14zM88 450q0 -8 6 -14t15 -6q8 0 14 6t6 14t-6 14t-14 6q-9 0 -15 -6t-6 -14zM88 553q0 -9 6 -15t15 -6q8 0 14 6.5t6 14.5q0 9 -6 14.5t-14 5.5q-21 0 -21 -20zM90 503q0 7 6 12.5t13 3.5 q-13 -3 -13 -16q0 -6 5 -11.5t12 -6.5q-1 0 -3 -0.5t-3 -0.5q-7 0 -12 5.5t-5 13.5zM93 450q0 8 6 13t14 4q-14 -3 -14 -17q0 -6 4.5 -10.5t11.5 -4.5q-1 -1 -5 -1q-17 0 -17 16zM93 553q0 18 20 18q-14 -5 -14 -16q0 -15 17 -18q-2 -1 -6 -1q-7 0 -12 5t-5 12zM95 602 q0 -8 6.5 -14.5t14.5 -6.5t13.5 6.5t5.5 14.5q0 19 -19 19q-8 0 -14.5 -5.5t-6.5 -13.5zM96 398q0 -8 6.5 -14t14.5 -6t14 6t6 14t-6 14.5t-14 6.5t-14.5 -6.5t-6.5 -14.5zM100 602q0 16 18 16q-12 -3 -12 -16q0 -14 16 -18h-5q-7 0 -12 5.5t-5 12.5zM101 398q0 7 5.5 12.5 t14.5 4.5q-13 -4 -13 -15q0 -17 16 -17q-2 -1 -5 -1q-7 0 -12.5 4.5t-5.5 11.5zM109 650q0 -9 6 -15.5t14 -6.5t14 6.5t6 15.5q0 8 -6 13.5t-14 5.5t-14 -5.5t-6 -13.5zM110 351q0 -8 5.5 -14t13.5 -6t14.5 6t6.5 14t-6.5 14t-14.5 6t-13.5 -6t-5.5 -14zM113 650q0 8 5.5 13 t12.5 3q-12 -3 -12 -16t15 -17l-2 -1h-3q-16 0 -16 18zM114 351q0 8 5.5 13t13.5 5q-13 -4 -13 -17q0 -15 15 -17q-8 -2 -14.5 3t-6.5 13zM125 305q0 -8 6 -14t16 -6q8 0 14 6t6 14t-6 14t-14 6q-10 0 -16 -6t-6 -14zM125 696q0 -9 6 -15t15 -6q8 0 14.5 6.5t6.5 14.5 q0 20 -21 20t-21 -20zM130 305q0 17 20 17q-14 -6 -14 -16q0 -14 17 -17q-9 -3 -16 2.5t-7 13.5zM130 696q0 17 19 17q-13 -4 -13 -15q0 -5 4 -11.5t12 -6.5q-2 -1 -5 -1q-7 0 -12 5.5t-5 11.5zM138 503q0 -127 62.5 -235t170 -170.5t233.5 -62.5q95 0 181.5 37t149.5 100 t100 149.5t37 181.5q0 191 -135 328.5t-329 137.5q-127 0 -235 -62t-171.5 -169.5t-63.5 -234.5zM147 263q0 -8 6.5 -14t14.5 -6q9 0 15 6t6 14t-6 14t-15 6q-8 0 -14.5 -6t-6.5 -14zM147 739q0 -8 6 -14.5t14 -6.5t14 6.5t6 14.5q0 9 -6 15t-14 6t-14 -6t-6 -15zM151 739 q0 18 19 18q-13 -4 -13 -18t16 -16h-5q-7 0 -12 4.5t-5 11.5zM152 263q0 18 20 18q-13 -2 -13 -18q0 -12 15 -16q-7 -4 -14.5 2t-7.5 14zM156 503q0 120 60 223t164.5 163.5t227.5 60.5q187 0 316 -130t129 -317t-131 -318t-318 -131q-122 0 -225 60t-163 163.5t-60 225.5z M171 779q0 -9 6 -14.5t14 -5.5q9 0 15 5.5t6 14.5q0 8 -6.5 14.5t-14.5 6.5t-14 -6.5t-6 -14.5zM173 222q0 -21 20 -21q9 0 15 6t6 15q0 8 -6.5 14t-14.5 6t-14 -6t-6 -14zM175 779q0 8 6 13t14 5q-14 -3 -14 -18q0 -13 17 -16q-2 -1 -6 -1q-7 0 -12 5t-5 12zM177 222 q0 7 5.5 12t14.5 4q-13 -4 -13 -16q0 -16 16 -16q-10 -3 -16.5 2t-6.5 14zM202 819q0 -8 5.5 -15t12.5 -7q9 0 15.5 7t6.5 15q0 9 -6.5 14.5t-15.5 5.5q-18 0 -18 -20zM203 182q0 -8 5.5 -14.5t12.5 -6.5q9 0 15 6.5t6 14.5q0 9 -6 15t-15 6q-8 0 -13 -6t-5 -15zM205 819 q0 17 20 17q-13 -4 -13 -16q0 -11 16 -17q-2 -1 -7 -1q-6 0 -11 5t-5 12zM206 182q0 8 6 13t14 4q-13 -5 -13 -17q0 -15 16 -15q-7 -4 -15 1.5t-8 13.5zM233 149q0 -9 6 -15.5t15 -6.5q8 0 14 6.5t6 15.5q0 7 -6 13t-14 6q-9 0 -15 -5.5t-6 -13.5zM234 856q0 -8 6.5 -14 t14.5 -6q7 0 13 6t6 14t-5.5 14t-13.5 6t-14.5 -6t-6.5 -14zM238 149q0 8 7.5 12.5t12.5 2.5q-13 -4 -13 -15q0 -6 5 -12t11 -6q-8 -3 -15.5 3t-7.5 15zM238 856q0 7 6 12t15 4q-13 -5 -13 -16q0 -6 4.5 -11t10.5 -5q-2 -1 -5 -1q-6 0 -12 5.5t-6 11.5zM268 115 q0 -8 5.5 -14t14.5 -6q8 0 14 6t6 14t-6 14.5t-14 6.5q-9 0 -14.5 -6t-5.5 -15zM270 256q0 -10 6.5 -18.5t16.5 -8.5q8 0 15.5 3.5t10.5 7.5l3 4q-7 -4 -14 -1t-7 11q0 11 16 11h41q13 0 24 13q7 -12 23 -12h43q4 12 5 20h-7q-15 0 -24.5 10.5t-13 32t-4.5 35.5t-1 37v214 q0 88 28 113q8 8 29 6l7 17h-62q-15 0 -23 -13q-6 13 -24 13h-35q-22 0 -22 12t11 12l10 -2q-9 14 -27 14q-11 0 -18 -8t-7 -18q0 -15 12.5 -23t28.5 -8q18 0 29 -10.5t15 -31.5t5 -35t1 -38v-213q0 -19 -0.5 -29.5t-3 -29.5t-7.5 -29.5t-15 -19t-24 -8.5q-16 0 -28.5 -7.5 t-12.5 -22.5zM271 887q0 -8 5.5 -14t14.5 -6q8 0 13.5 6t5.5 14q0 20 -19 20q-20 0 -20 -20zM272 115q0 8 6 13t14 3q-13 -3 -13 -14q0 -6 4.5 -11.5t11.5 -5.5q-8 -4 -15.5 1.5t-7.5 13.5zM274 887q0 17 20 17q-14 -6 -14 -17q0 -6 5 -11t12 -5q-7 -4 -15 1.5t-8 14.5z M306 86q0 -8 6.5 -13.5t14.5 -5.5q24 0 24 18q0 8 -7.5 15t-16.5 7q-8 0 -14.5 -6t-6.5 -15zM309 86q0 8 6.5 13.5t13.5 3.5q-12 -3 -12 -17q0 -5 4.5 -10.5t10.5 -5.5q-7 -4 -15 2t-8 14zM309 916q0 -9 6.5 -15t15.5 -6q20 0 20 21q0 9 -5.5 15t-14.5 6t-15.5 -6.5 t-6.5 -14.5zM314 916q0 8 6 13.5t14 4.5q-13 -4 -13 -18q0 -13 16 -17q-9 -2 -16 2.5t-7 14.5zM349 61q0 -9 6 -14.5t14 -5.5q21 0 21 20q0 8 -6.5 14.5t-14.5 6.5q-7 0 -13.5 -6.5t-6.5 -14.5zM351 941q0 -8 6.5 -14t14.5 -6t14 6t6 14t-6 14t-14 6t-14.5 -6t-6.5 -14z M353 61q0 8 6.5 13.5t13.5 3.5q-5 -1 -9.5 -6t-3.5 -11q0 -16 16 -16q-7 -4 -15 1.5t-8 14.5zM355 941q0 7 5.5 12t14.5 5q-13 -2 -13 -17q0 -6 4.5 -10.5t11.5 -4.5q-7 -4 -15 1.5t-8 13.5zM392 41q0 -8 6 -14t14 -6t14 6t6 14q0 9 -6 15t-14 6t-14 -6t-6 -15zM395 961 q0 -21 19 -21q8 0 14 6.5t6 14.5q0 9 -6 15t-14 6q-19 0 -19 -21zM396 42q0 16 19 16q-14 -3 -14 -15q0 -17 16 -17q-7 -4 -14 1.5t-7 14.5zM399 961q0 18 18 18q-12 -6 -12 -18q-1 -5 4 -10.5t12 -6.5q-22 -5 -22 17zM416 468q0 -8 5.5 -13.5t12.5 -5.5q11 0 16 7h14v-120 q0 -82 -28 -113q-4 -5 -16 -11l6 -11h37q17 0 22 12q7 -12 22 -12h37l5 11q-10 6 -15 11q-28 30 -28 113v120h54v24h-54v70q0 82 28 112q8 8 15 12l-5 11h-37q-15 0 -22 -12q-5 12 -22 12h-37l-6 -11q3 -1 16 -12q28 -32 28 -112v-70h-14q-5 7 -16 7q-8 0 -13 -5.5t-5 -13.5 zM438 24q0 -8 6 -14t14 -6q9 0 14.5 6t5.5 14t-5.5 14t-14.5 6q-8 0 -14 -6t-6 -14zM440 977q0 -19 19 -19q9 0 15.5 5.5t6.5 13.5t-6.5 14t-15.5 6q-8 0 -13.5 -6t-5.5 -14zM442 24q0 17 20 17q-14 -2 -14 -15q0 -17 16 -17q-7 -4 -14.5 1.5t-7.5 13.5zM444 977q0 17 19 17 q-12 -2 -12 -14q0 -18 16 -18q-8 -3 -15.5 1t-7.5 14zM486 14q0 -9 5 -15.5t14 -6.5q8 0 14.5 7t6.5 15q0 18 -21 18q-19 0 -19 -18zM487 990q0 -8 6.5 -13.5t14.5 -5.5t14.5 5.5t6.5 13.5t-6.5 14.5t-14.5 6.5t-14.5 -6.5t-6.5 -14.5zM489 14q0 16 20 15q-14 -5 -14 -14 q0 -6 5 -12t12 -6q-2 -1 -6 -1q-17 0 -17 18zM492 990q0 7 5 12.5t14 5.5q-13 -3 -13 -18q0 -5 4 -9t8 -5l4 -2q-8 -2 -15 2.5t-7 13.5zM503 790l8 -15q18 0 27.5 -7.5t16.5 -25.5q14 -31 14 -91v-368q0 -55 -14 -90q-13 -33 -44 -33l-7 -16h64q14 0 22 12q10 -12 24 -12h65 l-8 16q-32 0 -45 33q-14 31 -14 91v172h140q4 -7 14 -7q8 0 14 5.5t6 13.5t-6 13.5t-14 5.5q-9 0 -15 -8h-139v172q0 57 14 92q11 27 49 27h39q14 0 26.5 -9t17.5 -23q13 -29 13 -92q0 -67 3 -83q4 -19 17 -32t29 -13q6 0 9 1q34 7 34 38q0 1 -0.5 4t-0.5 4q-4 26 -30 26h-6 q-8 -1 -12.5 -6.5t-5.5 -10.5l-1 -4q5 4 10 4q8 0 9 -7v-5q0 -11 -10 -15q-1 -1 -3 -1q-19 0 -20 29q0 3 -0.5 10t-0.5 10q0 51 17 99t50 76h16q17 0 30 7.5t13 22.5q0 11 -7 19t-17 8q-9 0 -16.5 -3.5t-10.5 -7.5l-3 -3q7 5 14 2t7 -12q0 -13 -11 -13h-260q-15 0 -23 -13 q-8 13 -23 13h-65zM518 286q2 -14 4 -21h38q1 6 1 21h-43zM533 6q0 -8 6 -14t15 -6q8 0 14.5 6t6.5 14t-6.5 14.5t-14.5 6.5q-9 0 -15 -6.5t-6 -14.5zM535 997q0 -7 5.5 -13.5t14.5 -6.5q8 0 14.5 6.5t6.5 13.5q0 9 -6 15t-15 6q-20 0 -20 -21zM538 6q0 7 5 13t14 3 q-13 -2 -13 -15q0 -15 16 -18q-9 -2 -15.5 3.5t-6.5 13.5zM539 997q0 9 5.5 14.5t13.5 3.5q-12 -5 -12 -18q0 -5 5 -10t10 -5h-2q-2 -1 -3 -1q-7 0 -12 4.5t-5 11.5zM584 3q0 -8 6 -14.5t14 -6.5t15 6.5t7 14.5q0 9 -6.5 15t-15.5 6q-8 0 -14 -6t-6 -15zM584 1000 q0 -8 6 -14t14 -6t15 6t7 14q0 9 -6.5 15t-15.5 6q-8 0 -14 -6t-6 -15zM588 3q0 9 6.5 13.5t14.5 3.5q-14 -3 -14 -14q0 -6 5 -12.5t11 -6.5q-8 -3 -15.5 2t-7.5 14zM589 1000q0 18 20 18q-14 -4 -14 -18q0 -10 17 -14q-1 0 -3 -0.5t-3 -0.5q-17 0 -17 15zM621 265h37 q3 18 3 21h-40v-21zM630 212l6 -11h36q16 0 23 12q7 -12 22 -12h37l6 11q-10 5 -16 11q-27 32 -27 113v113h-44v-113q0 -88 -27 -113q-6 -6 -16 -11zM630 673q12 -8 16 -12q27 -27 27 -113v-63h44v63q0 81 27 113q4 4 16 12l-6 11h-37q-14 0 -22 -13q-8 13 -23 13h-36z M633 998q0 -8 6.5 -14t14.5 -6q9 0 14.5 6t5.5 14q0 21 -20 21q-9 0 -15 -6t-6 -15zM634 6q0 -8 6.5 -14.5t14.5 -6.5t14 6.5t6 14.5t-6 14t-14 6t-14.5 -6t-6.5 -14zM638 998q0 18 20 18q-13 -4 -13 -16q0 -15 16 -18q-7 -2 -15 2.5t-8 13.5zM639 6q0 15 19 15 q-13 -2 -13 -13q0 -7 4.5 -13t12.5 -6q-2 -1 -6 -1q-7 0 -12 5.5t-5 12.5zM683 14q0 -8 6.5 -15t13.5 -7q20 0 20 22q0 18 -20 18q-8 0 -14 -5t-6 -13zM683 992q0 -8 5.5 -14t13.5 -6q9 0 15 6t6 14q0 20 -21 20q-19 0 -19 -20zM686 14q0 15 21 15q-13 -2 -13 -14 q0 -18 17 -18q-2 -1 -7 -1q-7 0 -12.5 5.5t-5.5 12.5zM686 992q0 8 7 13.5t14 4.5q-13 -4 -13 -18q0 -6 4.5 -11t10.5 -5h-5q-7 0 -12.5 5t-5.5 11zM729 286q2 -19 3 -21h163q18 0 18 -11q0 -12 -10 -12l-10 2q6 -15 24 -15q11 0 19 8.5t8 18.5q0 15 -12.5 22.5t-28.5 7.5 h-17q11 8 14 14q21 43 42 44l-3 2q-3 1 -7.5 4t-9.5 7.5t-11 12t-10 16.5q-27 54 -85 54q-32 0 -57 -21t-25 -54q0 -27 15 -39.5t34 -12.5q15 0 26 10.5t11 24.5q0 30 -25 30q-24 0 -24 -23q0 -6 3 -10t6 -5l3 -1q-3 4 -2 8.5t7 4.5q8 0 8 -10q0 -15 -19 -15 q-12 0 -19.5 11.5t-7.5 25.5q0 17 12 31.5t35 14.5q30 0 45.5 -16t15.5 -42q0 -36 -26.5 -51t-61.5 -15h-41zM730 980q0 -8 6.5 -14t14.5 -6q9 0 14.5 6t5.5 14t-5.5 14t-14.5 6q-8 0 -14.5 -6t-6.5 -14zM731 25q0 -8 6 -14.5t15 -6.5q8 0 13.5 6.5t5.5 14.5t-5.5 13.5 t-13.5 5.5q-9 0 -15 -5.5t-6 -13.5zM735 25q0 7 5.5 12t12.5 5q1 -1 2 -1q-14 -2 -14 -16q0 -5 5 -10.5t12 -5.5q-2 -1 -5 -1q-7 0 -12.5 5t-5.5 12zM735 980q0 9 6.5 13.5t13.5 2.5q-14 -2 -14 -14q0 -15 16 -18q-1 -1 -5 -1q-7 0 -12 5.5t-5 11.5zM775 964q0 -8 6.5 -14.5 t15.5 -6.5q8 0 13.5 6.5t5.5 14.5q0 21 -19 21q-9 0 -15.5 -6t-6.5 -15zM776 41q0 -8 6 -14t15 -6q8 0 13.5 6t5.5 14q0 21 -19 21q-9 0 -15 -6t-6 -15zM780 41q0 7 6 12.5t14 5.5q-7 -2 -11 -7t-3 -11q1 -7 5.5 -11t8.5 -4h4q-6 -2 -9 -2q-15 3 -15 17zM780 964 q0 7 5.5 12.5t12.5 5.5h2q-13 -6 -13 -18q0 -5 4.5 -10t12.5 -5l-2 -1q-3 -1 -4 -1q-7 0 -12.5 5t-5.5 12zM820 62q0 -8 6 -14.5t14 -6.5q9 0 15 6.5t6 14.5t-6 14.5t-15 6.5q-8 0 -14 -6.5t-6 -14.5zM820 943q0 -8 6.5 -14.5t14.5 -6.5q9 0 15 6.5t6 14.5q0 9 -6 15t-15 6 q-8 0 -14.5 -6t-6.5 -15zM825 62q0 7 5 12.5t14 5.5q-16 -5 -13 -19q2 -12 17 -15q-9 -3 -16 2.5t-7 13.5zM826 943q0 7 5.5 13t12.5 5q-13 -4 -13 -18t17 -16q-8 -2 -15 2.5t-7 13.5zM862 87q0 -8 6.5 -14t14.5 -6q9 0 15 6t6 14q0 10 -6 16t-15 6t-15 -6.5t-6 -15.5z M862 918q0 -9 6 -14.5t15 -5.5q21 0 21 20q0 9 -6 15t-15 6q-8 0 -14.5 -6t-6.5 -15zM866 87q0 18 20 18q-13 -4 -13 -18q0 -6 5 -11t12 -5q-2 -1 -6 -1q-6 0 -12 5.5t-6 11.5zM866 918q0 7 6 12.5t15 5.5q-14 -3 -14 -18q0 -7 5 -11.5t12 -4.5q-8 -3 -16 2.5t-8 13.5z M902 117q0 -8 6 -14t15 -6q8 0 14.5 6t6.5 14t-6.5 14.5t-14.5 6.5q-9 0 -15 -6.5t-6 -14.5zM902 888q0 -8 6 -14t15 -6q8 0 14.5 6t6.5 14t-6.5 14t-14.5 6q-9 0 -15 -6t-6 -14zM906 117q0 8 6.5 13.5t13.5 3.5q-13 -4 -13 -17q0 -5 4 -10t12 -5q-1 0 -3 -0.5t-3 -0.5 q-7 0 -12 5t-5 11zM906 888q0 17 20 17q-13 -3 -13 -15q0 -6 4 -12t12 -6q-2 -1 -5 -1q-7 0 -12.5 5t-5.5 12zM938 856q0 -8 6.5 -14.5t13.5 -6.5q8 0 14.5 6.5t6.5 14.5t-6.5 14t-14.5 6t-14 -6t-6 -14zM939 151q0 -8 6 -15t13 -7q8 0 14.5 7t6.5 15q0 7 -6.5 13.5 t-14.5 6.5q-7 0 -13 -6.5t-6 -13.5zM943 856q0 16 18 16q-11 -3 -11 -16q0 -16 15 -16q-2 -1 -6 -1q-6 0 -11 5.5t-5 11.5zM944 151q0 7 4.5 12t10.5 5q2 -1 3 -1q-12 -3 -12 -16q0 -14 15 -17q-2 -1 -6 -1q-6 0 -10.5 5.5t-4.5 12.5zM970 186q0 -8 6.5 -14.5t15.5 -6.5 q8 0 13.5 6.5t5.5 14.5t-5.5 14t-13.5 6q-9 0 -15.5 -6t-6.5 -14zM972 819q0 -8 6 -15t14 -7t14 7t6 15q0 9 -6 14.5t-14 5.5t-14 -5.5t-6 -14.5zM975 186q0 17 20 17q-14 -3 -14 -15q0 -18 17 -19q-8 -2 -15.5 3t-7.5 14zM975 819q0 17 21 17q-14 -4 -14 -17q0 -6 5 -11 t11 -5q-2 -1 -5 -1q-7 0 -12.5 5t-5.5 12zM999 224q0 -9 6 -15t15 -6q8 0 14 6t6 15q0 8 -6 14.5t-14 6.5q-9 0 -15 -6.5t-6 -14.5zM1001 779q0 -21 20 -21t20 21q0 19 -20 19t-20 -19zM1003 224q0 7 5.5 12.5t12.5 5.5h2q-14 -6 -14 -16q0 -6 5 -12t12 -6q-7 -4 -15 1 t-8 15zM1004 779q0 7 6 12t14 5q-13 -4 -13 -17q0 -6 4.5 -11.5t11.5 -5.5q-1 0 -2.5 -0.5t-2.5 -0.5q-7 0 -12.5 5t-5.5 13zM1024 266q0 -8 6.5 -14t14.5 -6q9 0 15 6t6 14q0 21 -21 21q-9 0 -15 -6t-6 -15zM1025 736q0 -9 6.5 -15t14.5 -6t14.5 6t6.5 15q0 8 -6.5 14.5 t-14.5 6.5t-14.5 -6.5t-6.5 -14.5zM1029 266q0 17 20 17q-13 -4 -13 -17q0 -12 16 -15q-2 -1 -6 -1q-6 0 -11.5 4.5t-5.5 11.5zM1030 736q0 7 6 12t14 5q-13 -3 -13 -17q0 -13 15 -16q-2 -2 -5 -2q-6 0 -11.5 5.5t-5.5 12.5zM1046 311q0 -19 21 -19q20 0 20 19q0 9 -5.5 15 t-14.5 6q-8 0 -14.5 -6.5t-6.5 -14.5zM1046 692q0 -8 6.5 -14t14.5 -6q9 0 14.5 6t5.5 14q0 20 -20 20q-21 0 -21 -20zM1050 311q0 7 6 12.5t14 4.5q-13 -4 -13 -17q0 -14 18 -14q-4 -2 -8 -2q-17 0 -17 16zM1050 692q0 17 20 17q-13 -1 -13 -17q0 -5 4.5 -10.5t11.5 -5.5 q-1 -1 -6 -1q-7 0 -12 5t-5 12zM1061 648q0 -8 7 -15t15 -7t13.5 6.5t5.5 15.5q0 8 -5.5 14t-13.5 6t-15 -6t-7 -14zM1063 357q0 -8 6 -13.5t14 -5.5t14 5.5t6 13.5q0 9 -6 15t-14 6t-14 -6t-6 -15zM1066 648q0 7 6 12t14 5q-13 -3 -13 -15q0 -18 16 -18q-4 -2 -6 -2 q-6 0 -11.5 5.5t-5.5 12.5zM1067 357q0 18 20 18q-14 -6 -14 -18q0 -15 17 -15h-3l-2 -1q-18 0 -18 16zM1074 404q0 -8 5.5 -14t13.5 -6q9 0 15.5 6t6.5 14t-6.5 14t-15.5 6q-8 0 -13.5 -6t-5.5 -14zM1074 600q0 -8 5.5 -14t13.5 -6q9 0 15.5 6t6.5 14t-6.5 14.5t-15.5 6.5 q-8 0 -13.5 -6.5t-5.5 -14.5zM1078 404q0 7 5 12.5t13 5.5q-11 -4 -11 -16q0 -6 4 -12t9 -6q-9 -1 -14.5 4t-5.5 12zM1078 600q0 15 18 18q-12 -4 -12 -16q0 -7 4.5 -12.5t11.5 -5.5q-8 -2 -15 2.5t-7 13.5zM1081 453q0 -9 6 -14.5t14 -5.5t14 5.5t6 14.5q0 8 -6 14t-14 6 t-14 -6t-6 -14zM1081 551q0 -8 6 -14.5t14 -6.5t14 6.5t6 14.5q0 9 -6 15t-14 6t-14 -6t-6 -15zM1085 503q0 -22 18 -22q8 0 15 6.5t7 15.5q0 7 -7 13.5t-15 6.5t-13 -6t-5 -14zM1085 551q0 18 19 18q-12 -1 -12 -16q0 -18 16 -18q-2 -1 -7 -1q-6 0 -11 5t-5 12zM1086 453 q0 16 19 16q-13 -4 -13 -16q0 -16 15 -18q-10 -1 -15.5 4.5t-5.5 13.5zM1088 503q0 7 6 12.5t13 3.5q-14 -3 -14 -16q0 -7 5 -12.5t12 -5.5q-8 -2 -15 3t-7 15z" />
<glyph unicode="&#x2000;" horiz-adv-x="774" />
<glyph unicode="&#x2001;" horiz-adv-x="1548" />
<glyph unicode="&#x2002;" horiz-adv-x="774" />
<glyph unicode="&#x2003;" horiz-adv-x="1548" />
<glyph unicode="&#x2004;" horiz-adv-x="516" />
<glyph unicode="&#x2005;" horiz-adv-x="387" />
<glyph unicode="&#x2006;" horiz-adv-x="258" />
<glyph unicode="&#x2007;" horiz-adv-x="258" />
<glyph unicode="&#x2008;" horiz-adv-x="193" />
<glyph unicode="&#x2009;" horiz-adv-x="309" />
<glyph unicode="&#x200a;" horiz-adv-x="86" />
<glyph unicode="&#x202f;" horiz-adv-x="309" />
<glyph unicode="&#x205f;" horiz-adv-x="387" />
<glyph unicode="&#x25fc;" horiz-adv-x="1148" d="M0 0v1149h1149v-1149h-1149z" />
</font>
</defs>
</svg>
