<?xml version="1.0" standalone="no"?>
<!DOCTYPE svg PUBLIC "-//W3C//DTD SVG 1.1//EN" "http://www.w3.org/Graphics/SVG/1.1/DTD/svg11.dtd" >
<svg xmlns="http://www.w3.org/2000/svg">
<metadata></metadata>
<defs>
<font id="lhf_monogram_circle_2regular" horiz-adv-x="333" >
<font-face units-per-em="2048" ascent="1536" descent="-512" />
<missing-glyph horiz-adv-x="819" />
<glyph horiz-adv-x="0" />
<glyph horiz-adv-x="682" />
<glyph unicode=" "  horiz-adv-x="819" />
<glyph unicode="&#x09;" horiz-adv-x="819" />
<glyph unicode="&#xa0;" horiz-adv-x="819" />
<glyph unicode="&#x26;" d="M25 44v467l46 66l-46 67v446q75 20 140 20q76 0 148 -20v-384h-102v302q-28 2 -46 2q-12 0 -38 -2v-337l53 -92l-53 -91v-361q13 -2 38 -2q18 0 46 2v494h131v-101h-29v-475q-72 -20 -148 -20q-69 0 -140 19z" />
<glyph unicode="*" horiz-adv-x="1406" d="M66 567q0 130 50.5 248.5t136 204.5t204.5 137t249 51t248.5 -51t204 -137t136.5 -204.5t51 -248.5q0 -174 -86 -321.5t-233 -233t-321 -85.5q-130 0 -248.5 50.5t-204.5 136.5t-136.5 204.5t-50.5 248.5zM110 567q0 -162 79.5 -299t217 -217t299.5 -80t299 80t217 217 t80 299t-80 299t-217 217t-299 80t-299.5 -80t-217 -217t-79.5 -299z" />
<glyph unicode="0" horiz-adv-x="1406" d="M66 567q0 130 50.5 248.5t136 204.5t204.5 137t249 51t248.5 -51t204 -137t136.5 -204.5t51 -248.5q0 -174 -86 -321.5t-233 -233t-321 -85.5q-130 0 -248.5 50.5t-204.5 136.5t-136.5 204.5t-50.5 248.5zM110 567q0 -162 79.5 -299t217 -217t299.5 -80t299 80t217 217 t80 299t-80 299t-217 217t-299 80t-299.5 -80t-217 -217t-79.5 -299z" />
<glyph unicode="1" d="M25 45v1045q75 20 140 20q77 0 149 -20v-431h-103v349q-30 2 -46 2q-11 0 -37 -2v-881q13 -2 37 -2q16 0 46 2v339h-41v100h144v-521q-70 -20 -149 -20q-71 0 -140 20z" />
<glyph unicode="2" d="M25 44v577h103v-494q38 -5 83 0v881q-46 3 -83 0v100q94 6 185 -18v-1045q-72 -20 -144 -20q-73 0 -144 19z" />
<glyph unicode="3" d="M25 81v964l50 56q46 8 94 8q51 0 92 -8l52 -56v-960l-49 -51q-48 -9 -95 -9q-50 0 -91 7zM128 141l19 -16h43l21 16v853l-21 16h-43l-19 -16v-853z" />
<glyph unicode="4" horiz-adv-x="357" d="M25 52v104q4 -2 12.5 -4.5t12.5 -3.5v161l-25 7v104q5 -1 12.5 -3.5t12.5 -4.5v678q56 16 123 18q59 3 112 -7l53 -54v-695l-49 -53q-48 -9 -98 -9q-15 0 -39 2v-165q41 -3 83 0v-100q-101 -6 -210 25zM152 390h62l22 20v579l-22 20q-21 2 -62 -1v-618z" />
<glyph unicode="5" horiz-adv-x="361" d="M25 83v965l50 53q41 7 91 7q45 0 95 -8l52 -55v-857h29v-48h-29v-54l-49 -52q-48 -9 -98 -9q-36 0 -88 9zM128 141l19 -16h43l21 16v853l-21 15h-43l-19 -15v-853z" />
<glyph unicode="6" d="M25 45v1045q73 19 142 19q49 0 92 -7l55 -58v-401l-47 -50l47 -54v-494q-58 -15 -103 -18v495l-17 21h-66v-516q-47 3 -103 18zM128 643h66l17 18v327l-19 21q-4 0 -13 0.5t-13 0.5q-12 0 -38 -2v-365z" />
<glyph unicode="7" d="M25 1090q52 14 103 17l42 -1004l41 1005q54 -5 103 -18l-65 -1059q-41 -6 -79 -6q-39 0 -86 7z" />
<glyph unicode="8" horiz-adv-x="1406" d="M66 567q0 130 50.5 248.5t136 204.5t204.5 137t249 51t248.5 -51t204 -137t136.5 -204.5t51 -248.5q0 -174 -86 -321.5t-233 -233t-321 -85.5q-130 0 -248.5 50.5t-204.5 136.5t-136.5 204.5t-50.5 248.5zM110 567q0 -162 79.5 -299t217 -217t299.5 -80t299 80t217 217 t80 299t-80 299t-217 217t-299 80t-299.5 -80t-217 -217t-79.5 -299z" />
<glyph unicode="9" horiz-adv-x="1406" d="M66 567q0 130 50.5 248.5t136 204.5t204.5 137t249 51t248.5 -51t204 -137t136.5 -204.5t51 -248.5q0 -174 -86 -321.5t-233 -233t-321 -85.5q-130 0 -248.5 50.5t-204.5 136.5t-136.5 204.5t-50.5 248.5zM110 567q0 -162 79.5 -299t217 -217t299.5 -80t299 80t217 217 t80 299t-80 299t-217 217t-299 80t-299.5 -80t-217 -217t-79.5 -299z" />
<glyph unicode="A" d="M26 45v1044q71 20 144 20q67 0 144 -19v-1045q-59 -15 -103 -18v493h-83v-493q-54 4 -102 18zM128 621h83v387q-18 2 -38.5 2t-44.5 -2v-387z" />
<glyph unicode="B" d="M25 45v1045q71 19 144 19q75 0 144 -19v-446l-65 -68l65 -65v-466q-72 -20 -147 -20q-57 0 -141 20zM128 126q13 -1 40 -1q28 0 43 2v359l-33 34h-50v-394zM128 621h35l48 48v338q-42 3 -45 3q-12 0 -38 -2v-387z" />
<glyph unicode="C" d="M26 44v1046q71 19 140 19q79 0 148 -19v-422h-102v340q-30 2 -46 2q-11 0 -37 -2v-881q33 -3 41 -2q27 0 42 2v348h102v-430q-72 -20 -144 -20q-73 0 -144 19z" />
<glyph unicode="D" d="M25 44v1046q71 19 142 19q23 0 65 -4q34 -4 58 -26.5t24 -55.5v-919q0 -36 -30.5 -54.5t-70.5 -22.5q-15 -2 -43 -2q-74 0 -145 19zM128 127q39 -3 42 -3q41 0 41 27v829q0 29 -41 29q-29 0 -42 -1v-881z" />
<glyph unicode="E" horiz-adv-x="334" d="M26 43v1047q68 18 140 18q78 0 148 -19v-399h-103v317q-14 2 -45 2q-25 0 -38 -1v-387h186v-101h-186v-395q13 -1 38 -1q31 0 45 1v305h103v-385q-56 -21 -148 -21q-62 0 -140 19z" />
<glyph unicode="F" d="M2 50v106q20 -9 23 -10v944q71 19 143 19q73 0 145 -20v-307h-102v225q-14 2 -43 2q-28 0 -41 -1v-387h186v-184h-102v83h-84v-394q18 -2 42 -2q14 0 42 2v-100q-28 -2 -42 -2q-84 0 -167 26z" />
<glyph unicode="G" d="M25 44v1046q75 20 140 20q76 0 148 -20v-384h-102v302q-30 2 -46 2q-12 0 -38 -2v-881q13 -2 38 -2q16 0 46 2v393h-43v101h145v-576q-72 -20 -148 -20q-69 0 -140 19z" />
<glyph unicode="H" d="M26 44v1046q54 14 102 17v-486h83v486q59 -5 103 -17v-1045q-56 -15 -103 -18v493h-83v-493q-50 3 -102 17z" />
<glyph unicode="I" d="M25 45v103q49 -17 94 -21v881q-56 -7 -94 -20v102q73 19 144 19q77 0 144 -19v-104q-51 16 -92 21v-879q44 6 92 22v-105q-71 -20 -144 -20t-144 20z" />
<glyph unicode="J" d="M26 44v577h103v-494q19 -3 40 -3t43 3v881q-23 2 -43.5 2t-39.5 -2v100q19 1 38 1q75 0 147 -19v-1045q-72 -20 -144 -20q-73 0 -144 19z" />
<glyph unicode="K" d="M25 45v1045q49 14 102 18v-361q84 116 84 222v39q-11 1 -34 1v100q76 -2 136 -19v-121q0 -137 -111 -286q111 -187 111 -427v-211q-66 -19 -136 -20v100q12 0 34 2v129q0 198 -77 343l-7 -7v-565q-46 3 -102 18z" />
<glyph unicode="L" d="M1 977v106q83 26 160 26v-99q-5 0 -17 -1t-17 -1v-882q13 -1 43 -1q11 0 41 2v477h102v-559q-72 -20 -144 -20q-74 0 -144 19v944q-9 -3 -24 -11z" />
<glyph unicode="M" d="M25 45v1045q52 14 102 17l43 -432l41 432q51 -3 103 -17v-1045q-56 -15 -103 -18v441l-41 -204l-42 204v-442q-42 2 -103 19z" />
<glyph unicode="N" d="M25 45v1045q38 11 76 15l110 -505v508q53 -4 102 -18v-1045q-43 -12 -79 -16l-106 489v-491q-56 5 -103 18z" />
<glyph unicode="O" d="M25 44v1046q66 19 144 19q79 0 144 -20v-1044q-69 -20 -144 -20q-77 0 -144 19zM127 127q26 -2 46.5 -2t37.5 2v881q-22 2 -42.5 2t-41.5 -2v-881z" />
<glyph unicode="P" d="M1 52v104q5 -1 12.5 -4l12.5 -5v943q58 16 123 18q14 1 27 1q44 0 85 -8l53 -54v-695l-49 -53q-48 -9 -99 -9q-14 0 -38 2v-165q20 -2 41 -1.5t42 1.5v-100q-18 -1 -36 -1q-82 0 -174 26zM128 390h62l21 20v579l-21 20q-8 1 -20 1q-17 0 -42 -2v-618z" />
<glyph unicode="Q" d="M26 82v964l49 55q46 8 95 8q48 0 91 -7l53 -56v-960l-50 -52q-58 -9 -98 -9q-42 0 -88 8zM128 144l19 -19v139h44v-139l20 19v845l-21 21h-43l-19 -21v-845z" />
<glyph unicode="R" d="M25 45v1045q73 19 141 19q72 0 147 -19v-447l-46 -50l46 -54v-494q-59 -16 -102 -18v516h-84v-516q-46 3 -102 18zM127 643h84v365q-33 1 -41 1q-30 0 -43 -1v-365z" />
<glyph unicode="S" d="M25 45v449h102v-368q13 -1 42 -1q14 0 42 2v441h-186v522q75 20 144 20q72 0 144 -20v-340h-102v257q-21 3 -42 3q-16 0 -42 -2v-339h186v-624q-72 -20 -144 -20q-76 0 -144 20z" />
<glyph unicode="T" d="M25 380v710q71 19 141 19q75 0 147 -20v-709h-80v626l-22 1v-880q58 7 84 14v-102q-53 -14 -126 -14q-28 0 -59 3.5t-48 7.5l-18 3v102q35 -8 84 -15v882q-13 0 -22 -2v-626h-81z" />
<glyph unicode="U" d="M25 45v1045q52 14 103 17v-980q24 -2 37 -2q31 0 46 2v980q51 -3 103 -17v-1045q-71 -20 -145 -20q-73 0 -144 20z" />
<glyph unicode="V" d="M25 267v823q52 14 103 17v-826l42 -192l41 192v826q51 -3 103 -17v-823l-59 -235q-39 -7 -87 -7q-44 0 -90 8z" />
<glyph unicode="W" d="M25 1090q57 15 103 18v-511l42 306l41 -306v510q49 -3 103 -18l-31 -1052q-32 -7 -75 -10l-38 465l-39 -465q-42 3 -76 10z" />
<glyph unicode="X" d="M25 45v465l68 66l-68 67v447q52 14 102 18v-439l43 -41l41 41v438q49 -3 103 -17v-447l-68 -67l68 -66v-466q-54 -14 -103 -17v458l-41 38l-43 -38v-459q-38 2 -102 19z" />
<glyph unicode="Y" d="M25 442v648q54 14 102 17v-621l41 -39l42 39v622q34 -2 102 -18v-648l-92 -80v-335q-34 -2 -52 -2q-19 0 -51 2v335z" />
<glyph unicode="Z" d="M25 45v149l181 814q-24 2 -43.5 2t-35.5 -2v-151h-102v233q70 19 144 19q75 0 144 -19v-93l-186 -846v-24q25 -4 46 -4t38 4v259h102v-341q-72 -20 -144 -20q-69 0 -144 20z" />
<glyph unicode="a" d="M26 45v1044q71 20 144 20q67 0 144 -19v-1045q-59 -15 -103 -18v493h-83v-493q-54 4 -102 18zM128 621h83v387q-18 2 -38.5 2t-44.5 -2v-387z" />
<glyph unicode="b" d="M25 45v1045q71 19 144 19q75 0 144 -19v-446l-65 -68l65 -65v-466q-72 -20 -147 -20q-57 0 -141 20zM128 126q13 -1 40 -1q28 0 43 2v359l-33 34h-50v-394zM128 621h35l48 48v338q-42 3 -45 3q-12 0 -38 -2v-387z" />
<glyph unicode="c" d="M26 44v1046q71 19 140 19q79 0 148 -19v-422h-102v340q-30 2 -46 2q-11 0 -37 -2v-881q33 -3 41 -2q27 0 42 2v348h102v-430q-72 -20 -144 -20q-73 0 -144 19z" />
<glyph unicode="d" d="M25 44v1046q71 19 142 19q23 0 65 -4q34 -4 58 -26.5t24 -55.5v-919q0 -36 -30.5 -54.5t-70.5 -22.5q-15 -2 -43 -2q-74 0 -145 19zM128 127q39 -3 42 -3q41 0 41 27v829q0 29 -41 29q-29 0 -42 -1v-881z" />
<glyph unicode="e" horiz-adv-x="334" d="M26 43v1047q68 18 140 18q78 0 148 -19v-399h-103v317q-14 2 -45 2q-25 0 -38 -1v-387h186v-101h-186v-395q13 -1 38 -1q31 0 45 1v305h103v-385q-56 -21 -148 -21q-62 0 -140 19z" />
<glyph unicode="f" d="M2 50v106q20 -9 23 -10v944q71 19 143 19q73 0 145 -20v-307h-102v225q-14 2 -43 2q-28 0 -41 -1v-387h186v-184h-102v83h-84v-394q18 -2 42 -2q14 0 42 2v-100q-28 -2 -42 -2q-84 0 -167 26z" />
<glyph unicode="g" d="M25 44v1046q75 20 140 20q76 0 148 -20v-384h-102v302q-30 2 -46 2q-12 0 -38 -2v-881q13 -2 38 -2q16 0 46 2v393h-43v101h145v-576q-72 -20 -148 -20q-69 0 -140 19z" />
<glyph unicode="h" d="M26 44v1046q54 14 102 17v-486h83v486q59 -5 103 -17v-1045q-56 -15 -103 -18v493h-83v-493q-50 3 -102 17z" />
<glyph unicode="i" d="M25 45v103q49 -17 94 -21v881q-56 -7 -94 -20v102q73 19 144 19q77 0 144 -19v-104q-51 16 -92 21v-879q44 6 92 22v-105q-71 -20 -144 -20t-144 20z" />
<glyph unicode="j" d="M26 44v577h103v-494q19 -3 40 -3t43 3v881q-23 2 -43.5 2t-39.5 -2v100q19 1 38 1q75 0 147 -19v-1045q-72 -20 -144 -20q-73 0 -144 19z" />
<glyph unicode="k" d="M25 45v1045q49 14 102 18v-361q84 116 84 222v39q-11 1 -34 1v100q76 -2 136 -19v-121q0 -137 -111 -286q111 -187 111 -427v-211q-66 -19 -136 -20v100q12 0 34 2v129q0 198 -77 343l-7 -7v-565q-46 3 -102 18z" />
<glyph unicode="l" d="M1 977v106q83 26 160 26v-99q-5 0 -17 -1t-17 -1v-882q13 -1 43 -1q11 0 41 2v477h102v-559q-72 -20 -144 -20q-74 0 -144 19v944q-9 -3 -24 -11z" />
<glyph unicode="m" d="M25 45v1045q52 14 102 17l43 -432l41 432q51 -3 103 -17v-1045q-56 -15 -103 -18v441l-41 -204l-42 204v-442q-42 2 -103 19z" />
<glyph unicode="n" d="M25 45v1045q38 11 76 15l110 -505v508q53 -4 102 -18v-1045q-43 -12 -79 -16l-106 489v-491q-56 5 -103 18z" />
<glyph unicode="o" d="M25 44v1046q66 19 144 19q79 0 144 -20v-1044q-69 -20 -144 -20q-77 0 -144 19zM127 127q26 -2 46.5 -2t37.5 2v881q-22 2 -42.5 2t-41.5 -2v-881z" />
<glyph unicode="p" d="M1 52v104q5 -1 12.5 -4l12.5 -5v943q58 16 123 18q14 1 27 1q44 0 85 -8l53 -54v-695l-49 -53q-48 -9 -99 -9q-14 0 -38 2v-165q20 -1 41 -1t42 1v-100q-18 -1 -36 -1q-82 0 -174 26zM128 390h62l21 20v579l-21 20q-8 1 -20 1q-17 0 -42 -2v-618z" />
<glyph unicode="q" d="M26 82v964l49 55q46 8 95 8q48 0 91 -7l53 -56v-960l-50 -52q-58 -9 -98 -9q-42 0 -88 8zM128 144l19 -19v139h44v-139l20 19v845l-21 21h-43l-19 -21v-845z" />
<glyph unicode="r" d="M25 45v1045q73 19 141 19q72 0 147 -19v-447l-46 -50l46 -54v-494q-59 -16 -102 -18v516h-84v-516q-46 3 -102 18zM127 643h84v365q-33 1 -41 1q-30 0 -43 -1v-365z" />
<glyph unicode="s" d="M25 45v449h102v-368q13 -1 42 -1q14 0 42 2v441h-186v522q75 20 144 20q72 0 144 -20v-340h-102v257q-21 3 -42 3q-16 0 -42 -2v-339h186v-624q-72 -20 -144 -20q-76 0 -144 20z" />
<glyph unicode="t" d="M25 380v710q71 19 141 19q75 0 147 -20v-709h-80v626l-22 1v-880q58 7 84 14v-102q-53 -14 -126 -14q-28 0 -59 3.5t-48 7.5l-18 3v102q35 -8 84 -15v882q-13 0 -22 -2v-626h-81z" />
<glyph unicode="u" d="M25 45v1045q52 14 103 17v-980q24 -2 37 -2q31 0 46 2v980q51 -3 103 -17v-1045q-71 -20 -145 -20q-73 0 -144 20z" />
<glyph unicode="v" d="M25 267v823q52 14 103 17v-826l42 -192l41 192v826q51 -3 103 -17v-823l-59 -235q-39 -7 -87 -7q-44 0 -90 8z" />
<glyph unicode="w" d="M25 1090q57 15 103 18v-511l42 306l41 -306v510q49 -3 103 -18l-31 -1052q-32 -7 -75 -10l-38 465l-39 -465q-42 3 -76 10z" />
<glyph unicode="x" d="M25 45v465l68 66l-68 67v447q52 14 102 18v-439l43 -41l41 41v438q49 -3 103 -17v-447l-68 -67l68 -66v-466q-54 -14 -103 -17v458l-41 38l-43 -38v-459q-38 2 -102 19z" />
<glyph unicode="y" d="M25 442v648q54 14 102 17v-621l41 -39l42 39v622q34 -2 102 -18v-648l-92 -80v-335q-34 -2 -52 -2q-19 0 -51 2v335z" />
<glyph unicode="z" d="M25 45v149l181 814q-24 2 -43.5 2t-35.5 -2v-151h-102v233q70 19 144 19q75 0 144 -19v-93l-186 -846v-24q25 -4 46 -4t38 4v259h102v-341q-72 -20 -144 -20q-69 0 -144 20z" />
<glyph unicode="&#x2000;" horiz-adv-x="682" />
<glyph unicode="&#x2001;" horiz-adv-x="1365" />
<glyph unicode="&#x2002;" horiz-adv-x="682" />
<glyph unicode="&#x2003;" horiz-adv-x="1365" />
<glyph unicode="&#x2004;" horiz-adv-x="455" />
<glyph unicode="&#x2005;" horiz-adv-x="341" />
<glyph unicode="&#x2006;" horiz-adv-x="227" />
<glyph unicode="&#x2007;" horiz-adv-x="227" />
<glyph unicode="&#x2008;" horiz-adv-x="170" />
<glyph unicode="&#x2009;" horiz-adv-x="273" />
<glyph unicode="&#x200a;" horiz-adv-x="75" />
<glyph unicode="&#x202f;" horiz-adv-x="273" />
<glyph unicode="&#x205f;" horiz-adv-x="341" />
<glyph unicode="&#x25fc;" horiz-adv-x="1107" d="M0 0v1108h1108v-1108h-1108z" />
</font>
</defs>
</svg>
