<?xml version="1.0" standalone="no"?>
<!DOCTYPE svg PUBLIC "-//W3C//DTD SVG 1.1//EN" "http://www.w3.org/Graphics/SVG/1.1/DTD/svg11.dtd" >
<svg xmlns="http://www.w3.org/2000/svg">
<metadata></metadata>
<defs>
<font id="lhf_monogram_diamond_2regular" horiz-adv-x="319" >
<font-face units-per-em="2048" ascent="1536" descent="-512" />
<missing-glyph horiz-adv-x="1024" />
<glyph horiz-adv-x="0" />
<glyph horiz-adv-x="682" />
<glyph unicode=" "  horiz-adv-x="1024" />
<glyph unicode="&#x09;" horiz-adv-x="1024" />
<glyph unicode="&#xa0;" horiz-adv-x="1024" />
<glyph unicode="&#x26;" horiz-adv-x="318" d="M0 158q4 0 11 2t18 19.5t11 48.5v373l51 67l-51 66v372q0 31 -10 48.5t-20 19.5l-10 2l159 210l160 -210q-4 0 -11 -2t-18 -19.5t-11 -48.5v-256h-80v352l-40 52l-39 -52v-457l28 -38h62v-80h-63l-27 -37v-459l39 -52l40 52v433h128v-79h-48v-257q0 -19 4 -33.5t9.5 -21 t11.5 -10.5t10 -5h4l-159 -210z" />
<glyph unicode="*" horiz-adv-x="1422" d="M41 667l670 881l671 -881l-671 -881zM103 667l608 -800l609 800l-609 800z" />
<glyph unicode="0" d="M0 159q2 0 4.5 0.5t9.5 4t12 10t9.5 21t4.5 33.5v425l-40 13v79l40 -12v374q0 31 -10 48t-20 19l-10 2l159 210l160 -209q-2 0 -4.5 -0.5t-9.5 -4.5t-12 -11t-9.5 -21.5t-4.5 -33.5v-373l40 12v-79l-40 -13v-425q0 -31 10 -48.5t20 -19.5l10 -2l-120 -157v627l-39 -13 l-40 13v-627zM120 707l40 -12l39 12v495l-40 52l-39 -52v-495z" />
<glyph unicode="1" d="M0 158q4 0 11 2t18 19.5t11 48.5v400h-40v79h40v400q0 31 -10 48.5t-20 19.5l-10 2l159 209l160 -210q-4 0 -11 -2t-18 -19.5t-11 -48.5v-219h-80v315l-40 53l-39 -53v-495h23q31 0 48.5 10t19.5 20l2 10l106 -80l-106 -80q0 2 -0.5 4.5t-4.5 9.5t-10.5 12.5t-21 10 t-33.5 4.5h-23v-497l39 -52l40 52v316h80v-219q0 -31 10 -48t20 -19l10 -2l-160 -211z" />
<glyph unicode="2" d="M0 158q4 0 11 2t18 19.5t11 48.5v400h-40v79h40v400q0 31 -10 48.5t-20 19.5l-10 2l120 157v-627h79v627l120 -158q-2 0 -4.5 -0.5t-9.5 -4t-12 -10.5t-9.5 -21t-4.5 -34v-399h40v-79h-40v-400q0 -31 10 -48.5t20 -19.5l10 -2l-120 -157v627h-79v-627z" />
<glyph unicode="3" d="M0 158q2 0 4.5 0.5t9.5 4t12 10.5t9.5 21t4.5 34v878q0 31 -10 48.5t-20 19.5l-10 2l120 158v-627h79v627l120 -158q-4 0 -11 -2t-18 -19.5t-11 -48.5v-878q0 -31 10 -48.5t20 -19.5l10 -2l-120 -157v703l-42 -318l-37 317v-702z" />
<glyph unicode="4" d="M0 158q4 0 11 2t18 19.5t11 48.5v479h159v495l-40 52l-39 -52v-415h-80v319q0 31 -10 48.5t-20 19.5l-10 2l160 210l159 -210q-4 0 -11 -2t-18 -19.5t-11 -48.5v-878q0 -31 10 -48.5t20 -19.5l10 -2l-159 -210zM120 132l40 -53l39 53v495h-79v-495z" />
<glyph unicode="5" d="M0 158q4 0 11 2t18 19.5t11 48.5v398l159 212v364l-40 52l-39 -52v-369l-80 -106v379q0 31 -10 48.5t-20 19.5l-10 2l159 210l160 -210q-4 0 -11 -2t-18 -19.5t-11 -48.5v-878q0 -31 10 -48.5t20 -19.5l10 -2l-160 -210zM120 132l40 -53l39 53v573l-79 -105v-468z" />
<glyph unicode="6" horiz-adv-x="318" d="M0 158q4 0 11 2t18 19.5t11 48.5v879q0 31 -10 48t-20 19l-10 2l159 210l160 -210q-2 0 -4.5 -0.5t-9.5 -4t-12 -10t-9.5 -21t-4.5 -33.5v-479h-159v-495l39 -52l40 52v434h80v-339q0 -31 10 -48.5t20 -19.5l10 -2l-160 -210zM120 707h79v495l-40 52l-39 -52v-495z" />
<glyph unicode="7" d="M0 158q2 0 4.5 0.5t9.5 4t12 10.5t9.5 21t4.5 34v400h-40v79h40v399q0 31 -10 48.5t-20 19.5l-10 2l159 210l160 -209q-2 0 -4.5 -0.5t-9.5 -4.5t-12 -10.5t-9.5 -21t-4.5 -34.5v-195h-80v291l-40 52l-39 -52v-495h23q31 0 48.5 10t19.5 20l2 10l106 -79l-106 -81 q0 2 -0.5 4.5t-4.5 9.5t-10.5 12.5t-21 10t-33.5 4.5h-23v-400q0 -31 10 -48.5t20 -19.5l9 -2l-79 -105z" />
<glyph unicode="8" d="M0 158q2 0 4.5 0.5t9.5 4t12 10.5t9.5 21t4.5 34v879q0 31 -10 48t-20 19l-10 2l159 210l160 -210q-4 0 -11 -2t-18 -19.5t-11 -48.5v-669h-159v-209q0 -31 10 -48.5t20 -19.5l9 -2l-79 -105zM120 517h79v685l-40 52l-39 -52v-685z" />
<glyph unicode="9" d="M0 1177l120 157v-870l40 -53h39v923l120 -158q-2 0 -4.5 -0.5t-9.5 -4t-12 -10.5t-9.5 -21t-4.5 -34v-1000l-119 -157l-120 157v194h80v-168l39 -50l40 54v195h-79l-80 106v670q0 31 -10 48.5t-20 19.5z" />
<glyph unicode="A" horiz-adv-x="318" d="M0 159q2 0 4.5 0.5t9.5 4t12 10t9.5 21t4.5 33.5v879q0 31 -10 48t-20 19l-10 2l159 210l160 -209q-2 0 -4.5 -0.5t-9.5 -4.5t-12 -11t-9.5 -21.5t-4.5 -33.5v-878q0 -31 10 -48.5t20 -19.5l10 -2l-120 -157v627h-79v-627zM120 707h79v495l-40 52l-39 -52v-495z" />
<glyph unicode="B" d="M0 158q4 0 11 2t18 19.5t11 48.5v878q0 31 -10 48.5t-20 19.5l-10 2l159 210l160 -210q-4 0 -11 -2t-18 -19.5t-11 -48.5v-327l-30 -40l30 -39v-472q0 -31 10 -48.5t20 -19.5l10 -2l-160 -210zM120 133l39 -53l40 54v539l-79 -105v-435zM120 707l79 104v391l-40 52 l-39 -52v-495z" />
<glyph unicode="C" d="M0 158q4 0 11 2t18 19.5t11 48.5v878q0 31 -10 48.5t-20 19.5l-10 2l159 210l160 -210q-4 0 -11 -2t-18 -19.5t-11 -48.5v-339h-80v435l-39 52l-40 -52v-1069l39 -53l40 54v454h80v-360q0 -31 10 -48.5t20 -19.5l10 -2l-160 -210z" />
<glyph unicode="D" horiz-adv-x="318" d="M0 157q2 0 4.5 0.5t9.5 4.5t12 11t9.5 21.5t4.5 33.5v878q0 31 -10 49t-20 20l-10 2l159 209l120 -157v-1123l-120 -158zM119 132l40 -52l40 52v1070l-40 52l-40 -52v-1070z" />
<glyph unicode="E" d="M0 158q4 0 11 2t18 19.5t11 48.5v878q0 31 -10 48.5t-20 19.5l-10 2l159 210l160 -210q-4 0 -11 -2t-18 -19.5t-11 -48.5v-154h-80v250l-40 52l-39 -52v-495h79v122h80v-325h-80v123h-79v-496l39 -52l40 52v250h80v-153q0 -31 10 -48.5t20 -19.5l10 -2l-160 -210z" />
<glyph unicode="F" d="M0 158q2 0 4.5 0.5t9.5 4t12 10.5t9.5 21t4.5 34v878q0 31 -10 48.5t-20 19.5l-10 2l159 210l160 -210q-2 0 -4.5 -0.5t-9.5 -4t-12 -10.5t-9.5 -21t-4.5 -34v-154h-80v250l-40 52l-39 -52v-495h79v122h80v-325h-80v123h-79v-399q0 -31 10 -48.5t20 -19.5l9 -2l-79 -105z " />
<glyph unicode="G" horiz-adv-x="318" d="M0 158q4 0 11 2t18 19.5t11 48.5v878q0 31 -10 48.5t-20 19.5l-10 2l159 210l160 -209q-2 0 -4.5 -0.5t-9.5 -4.5t-12 -11t-9.5 -21.5t-4.5 -33.5v-154h-80v250l-40 52l-39 -52v-1071l40 -52l39 52v576h-39v79h119v-558q0 -19 4 -33.5t9.5 -21t11.5 -10.5t10 -5h4 l-158 -210z" />
<glyph unicode="H" horiz-adv-x="318" d="M0 158q4 0 11 2t18 19.5t11 48.5v879q0 31 -10 48t-20 19l-10 2l120 158v-627h79v627l120 -158q-4 0 -11 -2t-18 -19.5t-11 -48.5v-878q0 -31 10 -48.5t20 -19.5l10 -2l-120 -157v626h-79v-627z" />
<glyph unicode="I" horiz-adv-x="318" d="M35 113v131l62 -81q4 -4 8 -4q9 0 9 8v385l-79 115l79 116v384q0 9 -9 9q-3 0 -7 -4l-62 -82v134l124 162l124 -163v-131l-62 79q-5 5 -8 5q-8 0 -8 -9v-383l78 -117l-78 -115v-384q0 -9 9 -9q3 0 7 4l62 80v-132l-124 -163z" />
<glyph unicode="J" horiz-adv-x="318" d="M0 158q4 0 11 2t18 19.5t11 48.5v276q7 14 16.5 35t23.5 65q9 31 9 50q0 9 -2 15q-13 0 -30 14t-17 39q0 22 15.5 37.5t37.5 15.5q24 0 46 -23.5t22 -79.5q0 -39 -10.5 -81t-20.5 -65l-11 -22v-373l40 -52l40 52v976q0 31 -10 48.5t-20 19.5l-10 2l79 105l80 -105 q-2 0 -4.5 -0.5t-9 -4.5t-12 -10.5t-9.5 -21t-4 -34.5v-878q0 -31 10 -48.5t20 -19.5l10 -2l-160 -210z" />
<glyph unicode="K" d="M0 158q4 0 11 2t18 19.5t11 48.5v878q0 31 -10 48.5t-20 19.5l-10 2l120 158v-628l79 105v522l120 -157q-4 0 -11 -2t-18 -19.5t-11 -48.5v-327l-30 -40l30 -39v-472q0 -31 10 -48.5t20 -19.5l10 -2l-120 -157v672l-79 -105v-568z" />
<glyph unicode="L" d="M0 158q2 0 4.5 0.5t9.5 4.5t12.5 10.5t10 21t4.5 33.5v878q0 32 -10 49.5t-20 19.5l-10 2l79 105l80 -105q-2 0 -4.5 -0.5t-9.5 -4t-12 -10.5t-9.5 -21t-4.5 -34v-976l40 -52l39 52v373q-41 80 -41 168q0 56 22 79.5t46 23.5q22 0 37.5 -15.5t15.5 -37.5q0 -25 -17 -39 t-30 -14q-6 -20 6 -61t26 -72l15 -32v-276q0 -31 10 -48.5t20 -19.5l10 -2l-159 -210z" />
<glyph unicode="M" d="M0 158q2 0 4.5 0.5t9.5 4t12.5 10.5t10 21t4.5 34v878q0 31 -10.5 48.5t-20.5 19.5l-10 2l120 158l40 -627l39 627l120 -158q-4 0 -11 -2t-18 -19.5t-11 -48.5v-878q0 -31 10 -48.5t20 -19.5l10 -2l-120 -157v654h-1l-38 -647l-38 647h-2v-655z" />
<glyph unicode="N" d="M0 158q2 0 4.5 0.5t9.5 4t12 10.5t9.5 21t4.5 34v878q0 31 -10 48.5t-20 19.5l-10 2l120 158l75 -634l9 -63l-5 65v632l120 -157q-4 0 -11 -2t-18 -19.5t-11 -48.5v-879q0 -31 10 -48.5t20 -19.5l10 -2l-120 -158l-76 641l-7 65l4 -72v-633z" />
<glyph unicode="O" d="M0 158q4 0 11 2t18 19.5t11 48.5v878q0 31 -10 48.5t-20 19.5l-10 2l159 210l160 -210q-4 0 -11 -2t-18 -19.5t-11 -48.5v-878q0 -31 10 -48.5t20 -19.5l10 -2l-160 -210zM120 131l39 -52l40 52v1071l-40 52l-39 -52v-1071z" />
<glyph unicode="P" horiz-adv-x="318" d="M0 159q2 0 4.5 0.5t9.5 4t12 10t9.5 20.5t4.5 34v878q0 31 -10 48.5t-20 19.5l-10 2l159 210l160 -209q-2 0 -4.5 -0.5t-9.5 -4.5t-12 -11t-9.5 -21.5t-4.5 -33.5v-578l-70 -91h-89v-209q0 -31 10 -48.5t20 -19.5l10 -2l-80 -105zM120 517h49l30 39v646l-40 52l-39 -52 v-685z" />
<glyph unicode="Q" horiz-adv-x="318" d="M0 159q2 0 4.5 0.5t9.5 4t12 10t9.5 21t4.5 33.5v878q0 31 -10 48.5t-20 19.5l-10 2l159 210l160 -209q-2 0 -4.5 -0.5t-9.5 -4.5t-12 -11t-9.5 -21.5t-4.5 -33.5v-685h44v-80h-44v-113q0 -31 10 -48.5t20 -19.5l10 -2l-159 -210zM120 131l40 -52l39 52v210h-43v80h43 v781l-40 52l-39 -52v-1071z" />
<glyph unicode="R" horiz-adv-x="318" d="M0 159q2 0 4.5 0.5t9.5 4t12 10t9.5 20.5t4.5 34v878q0 31 -10 48.5t-20 19.5l-10 2l159 210l160 -210q-4 0 -11 -2t-18 -19.5t-11 -48.5v-386l-40 -53l40 -53v-386q0 -31 10 -48.5t20 -19.5l10 -2l-120 -157v588l-29 39h-50v-628zM120 707h49l30 40v454l-40 53l-39 -53 v-494z" />
<glyph unicode="S" d="M0 158q4 0 11 2t18 19.5t11 48.5v319h112v-80h-32v-336l39 -52l40 53v495h-159v479q0 31 -10 48.5t-20 19.5l-10 2l159 210l160 -210q-4 0 -11 -2t-18 -19.5t-11 -48.5v-320h-112v80h32v336l-40 52l-39 -52v-495h159v-479q0 -31 10 -48.5t20 -19.5l10 -2l-159 -210z" />
<glyph unicode="T" horiz-adv-x="318" d="M0 401v776l159 209l160 -210v-775h-80v753l-40 56v-1086q0 -32 10 -49.5t20 -19.5l10 -2l-80 -105l-80 105q2 0 4.5 0.5t9.5 4t12.5 10.5t10 21t4.5 34v1087l-41 -56v-753h-79z" />
<glyph unicode="U" d="M0 158q4 0 11 2t18 19.5t11 48.5v878q0 31 -10 48.5t-20 19.5l-10 2l120 158v-1201l40 -52l39 52v1201l120 -157q-2 0 -4.5 -0.5t-9.5 -4t-12 -10.5t-9.5 -21t-4.5 -34v-879q0 -31 10 -48.5t20 -19.5l10 -2l-159 -210z" />
<glyph unicode="V" d="M0 158v136l81 -242zM0 428q2 0 4.5 0.5t9.5 4.5t12.5 10.5t10 21t4.5 33.5v609q0 31 -10.5 48t-20.5 19l-10 2l120 158v-980l40 -150l39 150v979l120 -157q-2 0 -4.5 -0.5t-9.5 -4t-12 -10t-9.5 -21t-4.5 -33.5v-609q0 -31 10 -48.5t20 -19.5l10 -2l-159 -479zM238 52 l81 243v-137z" />
<glyph unicode="W" horiz-adv-x="318" d="M0 158q2 0 4.5 0.5t9.5 4t12 10.5t9.5 21t4.5 34v878q0 31 -10 48.5t-20 19.5l-10 2l120 158v-995h1l38 632l39 -632h1v995l120 -158q-2 0 -4.5 -0.5t-9.5 -4t-12 -10.5t-9.5 -21t-4.5 -34v-878q0 -31 10 -48.5t20 -19.5l10 -2l-120 -158l-40 272l-39 -271z" />
<glyph unicode="X" d="M0 158q2 0 4.5 0.5t9.5 4t12 10.5t9.5 21t4.5 34v399l30 40l-30 40v399q0 31 -10 48.5t-20 19.5l-10 2l120 158v-601l20 -26h39l20 26v601l120 -158q-4 0 -11 -2t-18 -19.5t-11 -48.5v-399l-30 -40l30 -40v-399q0 -31 10 -48.5t20 -19.5l10 -2l-120 -157v600l-20 26h-39 l-20 -27v-600z" />
<glyph unicode="Y" d="M0 1176l120 158v-870l40 -53l39 53v870l120 -158q-4 0 -11 -2t-18 -19.5t-11 -48.5v-669l-80 -106v-208q0 -31 10 -48.5t20 -19.5l10 -2l-79 -105l-80 105q2 0 4.5 0.5t9.5 4t12 10.5t9.5 21t4.5 34v208l-80 106v670q0 31 -10 48t-20 19z" />
<glyph unicode="Z" d="M0 158q5 0 12.5 2t22.5 19.5t19 47.5l145 975l-40 52l-39 -52v-322h-80v227q0 31 -10 48t-20 19l-10 2l159 210l160 -210q-5 0 -12.5 -2t-22 -19.5t-18.5 -47.5l-146 -974l39 -53l40 53v322h80v-227q0 -31 10 -48.5t20 -19.5l10 -2l-160 -210z" />
<glyph unicode="a" horiz-adv-x="318" d="M0 159q2 0 4.5 0.5t9.5 4t12 10t9.5 21t4.5 33.5v879q0 31 -10 48t-20 19l-10 2l159 210l160 -209q-2 0 -4.5 -0.5t-9.5 -4.5t-12 -11t-9.5 -21.5t-4.5 -33.5v-878q0 -31 10 -48.5t20 -19.5l10 -2l-120 -157v627h-79v-627zM120 707h79v495l-40 52l-39 -52v-495z" />
<glyph unicode="b" d="M0 158q4 0 11 2t18 19.5t11 48.5v878q0 31 -10 48.5t-20 19.5l-10 2l159 210l160 -210q-4 0 -11 -2t-18 -19.5t-11 -48.5v-327l-30 -40l30 -39v-472q0 -31 10 -48.5t20 -19.5l10 -2l-160 -210zM120 133l39 -53l40 54v539l-79 -105v-435zM120 707l79 104v391l-40 52 l-39 -52v-495z" />
<glyph unicode="c" d="M0 158q4 0 11 2t18 19.5t11 48.5v878q0 31 -10 48.5t-20 19.5l-10 2l159 210l160 -210q-4 0 -11 -2t-18 -19.5t-11 -48.5v-339h-80v435l-39 52l-40 -52v-1069l39 -53l40 54v454h80v-360q0 -31 10 -48.5t20 -19.5l10 -2l-160 -210z" />
<glyph unicode="d" horiz-adv-x="278" d="M0 157q2 0 4.5 0.5t9.5 4.5t12 11t9.5 21.5t4.5 33.5v878q0 31 -10 49t-20 20l-10 2l159 209l120 -157v-1123l-120 -158zM119 132l40 -52l40 52v1070l-40 52l-40 -52v-1070z" />
<glyph unicode="e" d="M0 158q4 0 11 2t18 19.5t11 48.5v878q0 31 -10 48.5t-20 19.5l-10 2l159 210l160 -210q-4 0 -11 -2t-18 -19.5t-11 -48.5v-154h-80v250l-40 52l-39 -52v-495h79v122h80v-325h-80v123h-79v-496l39 -52l40 52v250h80v-153q0 -31 10 -48.5t20 -19.5l10 -2l-160 -210z" />
<glyph unicode="f" d="M0 158q2 0 4.5 0.5t9.5 4t12 10.5t9.5 21t4.5 34v878q0 31 -10 48.5t-20 19.5l-10 2l159 210l160 -210q-2 0 -4.5 -0.5t-9.5 -4t-12 -10.5t-9.5 -21t-4.5 -34v-154h-80v250l-40 52l-39 -52v-495h79v122h80v-325h-80v123h-79v-399q0 -31 10 -48.5t20 -19.5l9 -2l-79 -105z " />
<glyph unicode="g" d="M0 158q4 0 11 2t18 19.5t11 48.5v878q0 31 -10 48.5t-20 19.5l-10 2l159 210l160 -209q-2 0 -4.5 -0.5t-9.5 -4.5t-12 -11t-9.5 -21.5t-4.5 -33.5v-154h-80v250l-40 52l-39 -52v-1071l40 -52l39 52v576h-39v79h119v-558q0 -19 4 -33.5t9.5 -21t11.5 -10.5t10 -5h4 l-158 -210z" />
<glyph unicode="h" horiz-adv-x="318" d="M0 158q4 0 11 2t18 19.5t11 48.5v879q0 31 -10 48t-20 19l-10 2l120 158v-627h79v627l120 -158q-4 0 -11 -2t-18 -19.5t-11 -48.5v-878q0 -31 10 -48.5t20 -19.5l10 -2l-120 -157v626h-79v-627z" />
<glyph unicode="i" horiz-adv-x="247" d="M-2 113v131l63 -81q4 -4 8 -4q8 0 8 8v385l-79 115l79 116v384q0 9 -9 9q-3 0 -7 -4l-61 -82v134l124 162l123 -163v-131l-61 79q-5 5 -8 5q-9 0 -9 -9v-383l78 -117l-78 -115v-384q0 -9 9 -9q4 0 8 4l61 80v-132l-123 -163z" />
<glyph unicode="j" horiz-adv-x="318" d="M0 158q4 0 11 2t18 19.5t11 48.5v276q7 14 16.5 35t23.5 65q9 31 9 50q0 9 -2 15q-13 0 -30 14t-17 39q0 22 15.5 37.5t37.5 15.5q24 0 46 -23.5t22 -79.5q0 -39 -10.5 -81t-20.5 -65l-11 -22v-373l40 -52l40 52v976q0 31 -10 48.5t-20 19.5l-10 2l79 105l80 -105 q-2 0 -4.5 -0.5t-9 -4.5t-12 -10.5t-9.5 -21t-4 -34.5v-878q0 -31 10 -48.5t20 -19.5l10 -2l-160 -210z" />
<glyph unicode="k" d="M0 158q4 0 11 2t18 19.5t11 48.5v878q0 31 -10 48.5t-20 19.5l-10 2l120 158v-628l79 105v522l120 -157q-4 0 -11 -2t-18 -19.5t-11 -48.5v-327l-30 -40l30 -39v-472q0 -31 10 -48.5t20 -19.5l10 -2l-120 -157v672l-79 -105v-568z" />
<glyph unicode="l" d="M0 158q2 0 4.5 0.5t9.5 4.5t12.5 10.5t10 21t4.5 33.5v878q0 32 -10 49.5t-20 19.5l-10 2l79 105l80 -105q-2 0 -4.5 -0.5t-9.5 -4t-12 -10.5t-9.5 -21t-4.5 -34v-976l40 -52l39 52v373q-41 80 -41 168q0 56 22 79.5t46 23.5q22 0 37.5 -15.5t15.5 -37.5q0 -25 -17 -39 t-30 -14q-6 -20 6 -61t26 -72l15 -32v-276q0 -31 10 -48.5t20 -19.5l10 -2l-159 -210z" />
<glyph unicode="m" d="M0 158q2 0 4.5 0.5t9.5 4t12.5 10.5t10 21t4.5 34v878q0 31 -10.5 48.5t-20.5 19.5l-10 2l120 158l40 -627l39 627l120 -158q-4 0 -11 -2t-18 -19.5t-11 -48.5v-878q0 -31 10 -48.5t20 -19.5l10 -2l-120 -157v654h-1l-38 -647l-38 647h-2v-655z" />
<glyph unicode="n" d="M0 158q2 0 4.5 0.5t9.5 4t12 10.5t9.5 21t4.5 34v878q0 31 -10 48.5t-20 19.5l-10 2l120 158l75 -634l9 -63l-5 65v632l120 -157q-4 0 -11 -2t-18 -19.5t-11 -48.5v-879q0 -31 10 -48.5t20 -19.5l10 -2l-120 -158l-76 641l-7 65l4 -72v-633z" />
<glyph unicode="o" d="M0 158q4 0 11 2t18 19.5t11 48.5v878q0 31 -10 48.5t-20 19.5l-10 2l159 210l160 -210q-4 0 -11 -2t-18 -19.5t-11 -48.5v-878q0 -31 10 -48.5t20 -19.5l10 -2l-160 -210zM120 131l39 -52l40 52v1071l-40 52l-39 -52v-1071z" />
<glyph unicode="p" d="M0 159q2 0 4.5 0.5t9.5 4t12 10t9.5 20.5t4.5 34v878q0 31 -10 48.5t-20 19.5l-10 2l159 210l160 -209q-2 0 -4.5 -0.5t-9.5 -4.5t-12 -11t-9.5 -21.5t-4.5 -33.5v-578l-70 -91h-89v-209q0 -31 10 -48.5t20 -19.5l10 -2l-80 -105zM120 517h49l30 39v646l-40 52l-39 -52 v-685z" />
<glyph unicode="q" horiz-adv-x="323" d="M0 159q2 0 4.5 0.5t9.5 4t12 10t9.5 21t4.5 33.5v878q0 31 -10 48.5t-20 19.5l-10 2l159 210l160 -209q-2 0 -4.5 -0.5t-9.5 -4.5t-12 -11t-9.5 -21.5t-4.5 -33.5v-685h44v-80h-44v-113q0 -31 10 -48.5t20 -19.5l10 -2l-159 -210zM120 131l40 -52l39 52v210h-43v80h43 v781l-40 52l-39 -52v-1071z" />
<glyph unicode="r" horiz-adv-x="318" d="M0 159q2 0 4.5 0.5t9.5 4t12 10t9.5 20.5t4.5 34v878q0 31 -10 48.5t-20 19.5l-10 2l159 210l160 -210q-4 0 -11 -2t-18 -19.5t-11 -48.5v-386l-40 -53l40 -53v-386q0 -31 10 -48.5t20 -19.5l10 -2l-120 -157v588l-29 39h-50v-628zM120 707h49l30 40v454l-40 53l-39 -53 v-494z" />
<glyph unicode="s" d="M0 158q4 0 11 2t18 19.5t11 48.5v319h112v-80h-32v-336l39 -52l40 53v495h-159v479q0 31 -10 48.5t-20 19.5l-10 2l159 210l160 -210q-4 0 -11 -2t-18 -19.5t-11 -48.5v-320h-112v80h32v336l-40 52l-39 -52v-495h159v-479q0 -31 10 -48.5t20 -19.5l10 -2l-159 -210z" />
<glyph unicode="t" horiz-adv-x="318" d="M0 401v776l159 209l160 -210v-775h-80v753l-40 56v-1086q0 -32 10 -49.5t20 -19.5l10 -2l-80 -105l-80 105q2 0 4.5 0.5t9.5 4t12.5 10.5t10 21t4.5 34v1087l-41 -56v-753h-79z" />
<glyph unicode="u" d="M0 158q4 0 11 2t18 19.5t11 48.5v878q0 31 -10 48.5t-20 19.5l-10 2l120 158v-1201l40 -52l39 52v1201l120 -157q-2 0 -4.5 -0.5t-9.5 -4t-12 -10.5t-9.5 -21t-4.5 -34v-879q0 -31 10 -48.5t20 -19.5l10 -2l-159 -210z" />
<glyph unicode="v" d="M0 158v136l81 -242zM0 428q2 0 4.5 0.5t9.5 4.5t12.5 10.5t10 21t4.5 33.5v609q0 31 -10.5 48t-20.5 19l-10 2l120 158v-980l40 -150l39 150v979l120 -157q-2 0 -4.5 -0.5t-9.5 -4t-12 -10t-9.5 -21t-4.5 -33.5v-609q0 -31 10 -48.5t20 -19.5l10 -2l-159 -479zM238 52 l81 243v-137z" />
<glyph unicode="w" horiz-adv-x="318" d="M0 158q2 0 4.5 0.5t9.5 4t12 10.5t9.5 21t4.5 34v878q0 31 -10 48.5t-20 19.5l-10 2l120 158v-995h1l38 632l39 -632h1v995l120 -158q-2 0 -4.5 -0.5t-9.5 -4t-12 -10.5t-9.5 -21t-4.5 -34v-878q0 -31 10 -48.5t20 -19.5l10 -2l-120 -158l-40 272l-39 -271z" />
<glyph unicode="x" d="M0 158q2 0 4.5 0.5t9.5 4t12 10.5t9.5 21t4.5 34v399l30 40l-30 40v399q0 31 -10 48.5t-20 19.5l-10 2l120 158v-601l20 -26h39l20 26v601l120 -158q-4 0 -11 -2t-18 -19.5t-11 -48.5v-399l-30 -40l30 -40v-399q0 -31 10 -48.5t20 -19.5l10 -2l-120 -157v600l-20 26h-39 l-20 -27v-600z" />
<glyph unicode="y" d="M0 1176l120 158v-870l40 -53l39 53v870l120 -158q-4 0 -11 -2t-18 -19.5t-11 -48.5v-669l-80 -106v-208q0 -31 10 -48.5t20 -19.5l10 -2l-79 -105l-80 105q2 0 4.5 0.5t9.5 4t12 10.5t9.5 21t4.5 34v208l-80 106v670q0 31 -10 48t-20 19z" />
<glyph unicode="z" d="M0 158q5 0 12.5 2t22.5 19.5t19 47.5l145 975l-40 52l-39 -52v-322h-80v227q0 31 -10 48t-20 19l-10 2l159 210l160 -210q-5 0 -12.5 -2t-22 -19.5t-18.5 -47.5l-146 -974l39 -53l40 53v322h80v-227q0 -31 10 -48.5t20 -19.5l10 -2l-160 -210z" />
<glyph unicode="&#x2000;" horiz-adv-x="774" />
<glyph unicode="&#x2001;" horiz-adv-x="1548" />
<glyph unicode="&#x2002;" horiz-adv-x="774" />
<glyph unicode="&#x2003;" horiz-adv-x="1548" />
<glyph unicode="&#x2004;" horiz-adv-x="516" />
<glyph unicode="&#x2005;" horiz-adv-x="387" />
<glyph unicode="&#x2006;" horiz-adv-x="258" />
<glyph unicode="&#x2007;" horiz-adv-x="258" />
<glyph unicode="&#x2008;" horiz-adv-x="193" />
<glyph unicode="&#x2009;" horiz-adv-x="309" />
<glyph unicode="&#x200a;" horiz-adv-x="86" />
<glyph unicode="&#x202f;" horiz-adv-x="309" />
<glyph unicode="&#x205f;" horiz-adv-x="387" />
<glyph unicode="&#x25fc;" horiz-adv-x="1333" d="M0 0v1333h1333v-1333h-1333z" />
</font>
</defs>
</svg>
